<?xml version="1.0" encoding="utf-8"?>
<!-- Generator: Adobe Illustrator 22.0.1, SVG Export Plug-In . SVG Version: 6.00 Build 0)  -->
<svg version="1.1" id="Capa_1" xmlns="http://www.w3.org/2000/svg" xmlns:xlink="http://www.w3.org/1999/xlink" x="0px" y="0px"
	 viewBox="0 0 512 512" style="enable-background:new 0 0 512 512;" xml:space="preserve">
<style type="text/css">
	.st0{fill:#D8D8D8;}
</style>
<g>
	<g>
		<path class="st0" d="M437,75.1C388.6,26.7,324.4,0,256,0S123.3,26.6,75,75c-93.3,93.3-100,242.3-16.9,343.3
			c-11.5,23.5-25.1,39.1-40.3,46.6c-9.3,4.6-14.6,14.7-13.1,25c1.6,10.4,9.5,18.4,19.9,20.1c5.7,0.9,11.8,1.4,18.1,1.4l0,0
			c31.4,0,64.4-10.8,92-29.8C171.8,501.5,213.5,512,256,512c68.4,0,132.6-26.6,181-75s75-112.7,75-181S485.3,123.4,437,75.1z
			 M416.5,416.6C373.6,459.5,316.6,483,256,483c-40.5,0-80.3-10.8-114.9-31.2c-2.3-1.3-4.8-2-7.3-2c-3.1,0-6.3,1.1-8.9,3
			C92,478.2,59,482,44.5,482.3c17.3-12.9,31.7-32.8,43.9-60.6c2.3-5.1,1.3-11.2-2.5-15.4C6.6,316.6,10.8,180,95.5,95.3
			c42.9-42.9,99.9-66.5,160.5-66.5c60.7,0,117.6,23.6,160.5,66.5C505.1,184,505.1,328.1,416.5,416.6z"/>
	</g>
</g>
</svg>
