<?xml version="1.0" encoding="utf-8"?>
<!-- Generator: Adobe Illustrator 22.0.1, SVG Export Plug-In . SVG Version: 6.00 Build 0)  -->
<svg version="1.1" id="Layer_1" xmlns="http://www.w3.org/2000/svg" xmlns:xlink="http://www.w3.org/1999/xlink" x="0px" y="0px"
	 viewBox="0 0 24 24" style="enable-background:new 0 0 24 24;" xml:space="preserve">
<style type="text/css">
	.st0{fill:none;}
	.st1{fill:#7D7D7D;}
</style>
<path class="st0" d="M0,0h24v24H0V0z"/>
<path class="st1" d="M11,17c0,0.5,0.4,1,1,1s1-0.5,1-1s-0.4-1-1-1S11,16.5,11,17z M11,3v4h2V5.1c3.4,0.5,6,3.4,6,6.9
	c0,3.9-3.1,7-7,7s-7-3.1-7-7c0-1.7,0.6-3.2,1.6-4.4L12,13l1.4-1.4L6.6,4.8v0C4.4,6.4,3,9.1,3,12c0,5,4,9,9,9c5,0,9-4,9-9s-4-9-9-9
	H11z M18,12c0-0.6-0.5-1-1-1s-1,0.4-1,1s0.5,1,1,1S18,12.6,18,12z M6,12c0,0.6,0.4,1,1,1s1-0.4,1-1s-0.4-1-1-1S6,11.4,6,12z"/>
</svg>
